<?xml version="1.0" encoding="utf-8"?>
<!-- Generator: Adobe Illustrator 21.0.0, SVG Export Plug-In . SVG Version: 6.00 Build 0)  -->
<svg version="1.1" id="svg2" xmlns:svg="http://www.w3.org/2000/svg"
	 xmlns="http://www.w3.org/2000/svg" xmlns:xlink="http://www.w3.org/1999/xlink" x="0px" y="0px" width="787.9px" height="299.3px"
	 viewBox="0 0 787.9 299.3" style="enable-background:new 0 0 787.9 299.3;" xml:space="preserve">
<g id="layer1">
	<path id="text3275" d="M269.7,13.7l7.8,90.3h-7.8c-7.9-22.5-18.1-39.5-30.6-50.9c-18-16.5-41.2-24.7-69.4-24.7
		c-38.6,0-74.7,13.6-94.8,42.4C58,95.3,51.4,111.4,51.4,145c0,27.3,5.6,52.2,16.7,74.7c11.2,22.5,25.8,39,43.9,49.5
		c18.1,10.5,36.7,15.7,55.7,15.7c11.2,0,22-1.3,32.4-4c10.4-2.7,20.5-6.6,30.1-11.8v-75c0-14.4-1.2-23.7-3.5-28.2
		c-2.3-4.4-5.9-7.8-10.7-10.1c-4.8-2.3-13.4-3.5-25.6-3.5v-8h117.2v8h-5.6c-11.6,0-19.6,3.7-23.9,11c-3,5.2-4.5,15.5-4.5,30.8V274
		c-17.1,8.7-34,15.1-50.7,19.2c-16.7,4.1-35.2,6.1-55.6,6.1c-58.5,0-102.9-17.7-133.3-53.2C11.4,219.5,0,188.8,0,154.1
		c0-25.2,4.7-39,17.5-62.1c15.2-27.4,36-46,62.5-60.7c22.2-12.2,55.2-17.5,85.5-17.5c11,0,21,0.8,30,2.5c9,1.7,21.8,5.4,38.3,11.2
		c8.3,3,13.9,4.4,16.7,4.4c2.8,0,5.2-1.2,7.3-3.7c2-2.5,3.2-7.3,3.7-14.5H269.7z"/>
	<path id="text3279" d="M348.6,28.7v113.1h66.5c17.3,0,28.8-2.5,34.6-7.4c7.7-6.5,12.1-17.9,13-34.2h8.3v99.6h-8.3
		c-2.1-13.9-4.2-22.9-6.3-26.8c-2.7-4.9-7.1-8.8-13.2-11.6c-6.1-2.8-15.5-4.2-28.1-4.2h-66.5v94.3c0,12.7,0.6,20.4,1.8,23.1
		c1.2,2.7,3.3,4.9,6.3,6.5c3,1.6,8.6,2.4,17,2.4H425c17.1,0,29.5-1.1,37.3-3.4c7.7-2.3,15.2-6.7,22.3-13.3
		c9.2-8.7,18.7-21.9,28.4-39.5h8.9l-26.1,71.8H262.5v-7.8h10.7c7.1,0,13.9-1.6,20.3-4.9c4.8-2.3,8-5.6,9.7-10.1
		c1.7-4.5,2.6-13.7,2.6-27.7v-186c0-18.2-1.9-29.3-5.8-33.6c-5.4-5.6-14.3-8.4-26.8-8.4h-10.7v-7.8h233.3l3.3,62.7h-8.7
		c-3.1-15.1-6.6-25.4-10.4-31c-3.8-5.6-9.4-9.9-16.9-12.9c-6-2.1-16.4-3.2-31.5-3.2H348.6z"/>
	<path id="text3283" d="M642.5,0c39.3,0,73.3,14.1,102.2,42.3c28.8,28.2,43.2,63.4,43.2,105.6c0,43.5-14.5,79.6-43.5,108.3
		c-29,28.7-64.2,43.1-105.4,43.1c-41.7,0-76.7-14-105.1-42c-28.4-28-42.5-64.2-42.5-108.7c0-45.5,16.4-82.5,49.1-111.2
		C568.9,12.5,602.9,0,642.5,0L642.5,0z M638.3,15.4c-27.1,0-48.8,9.5-65.2,28.5c-20.4,23.6-30.6,58.3-30.6,103.8
		c0,46.7,10.6,82.7,31.7,107.9c16.2,19.1,37.7,28.7,64.3,28.7c28.4,0,51.9-10.5,70.4-31.4c18.5-21,27.8-54,27.8-99.2
		c0-49-10.2-85.5-30.6-109.5C689.8,25,667.2,15.4,638.3,15.4L638.3,15.4z"/>
</g>
</svg>
